PathFileType	4	(X/Y/Z)	c:/Users/goper/Files/vsCode/490R/osim_files/A03/A03_Slow_04.trc
DataRate	CameraRate	NumFrames	NumMarkers	Units                	OrigDataRate	OrigDataStartFrame	OrigNumFrames
250.00	250.00	8	36	mm	250.0	1994	2658
                Frame#	Time	LPSIS			LASIS			LTH1			LTH2			LTH3			LTH4			LLFE			LMFE			LSH1			LSH2			LSH3			LSH4			LLMAL			LMMAL			LCAL			LMTP5			LTOE			LMTP1			RPSIS			RASIS			RTH1			RTH2			RTH3			RTH4			RLFE			RMFE			RSH1			RSH2			RSH3			RSH4			RLMAL			RMMAL			RCAL			RMTP1			RTOE			RMTP5		
		X1	Y1	Z1	X2	Y2	Z2	X3	Y3	Z3	X4	Y4	Z4	X5	Y5	Z5	X6	Y6	Z6	X7	Y7	Z7	X8	Y8	Z8	X9	Y9	Z9	X10	Y10	Z10	X11	Y11	Z11	X12	Y12	Z12	X13	Y13	Z13	X14	Y14	Z14	X15	Y15	Z15	X16	Y16	Z16	X17	Y17	Z17	X18	Y18	Z18	X19	Y19	Z19	X20	Y20	Z20	X21	Y21	Z21	X22	Y22	Z22	X23	Y23	Z23	X24	Y24	Z24	X25	Y25	Z25	X26	Y26	Z26	X27	Y27	Z27	X28	Y28	Z28	X29	Y29	Z29	X30	Y30	Z30	X31	Y31	Z31	X32	Y32	Z32	X33	Y33	Z33	X34	Y34	Z34	X35	Y35	Z35	X36	Y36	Z36

1994	7.97200	-2412.31396	1065.15112	253.11223	0.00000	0.00000	0.00000	0.00000	0.00000	0.00000	-2751.26245	610.41589	418.31729	0.00000	0.00000	0.00000	-2793.01611	637.02655	401.21085	-2749.71460	562.38617	404.35443	-2790.58276	571.20355	254.02737	-2749.20947	467.25275	400.02686	0.00000	0.00000	0.00000	0.00000	0.00000	0.00000	0.00000	0.00000	0.00000	-2915.96118	130.24937	375.71210	-2936.10278	142.74750	279.12601	-2865.99561	88.74490	315.66287	-3074.38794	142.70308	405.35352	0.00000	0.00000	0.00000	0.00000	0.00000	0.00000	-2415.12109	1079.99011	170.90100	0.00000	0.00000	0.00000	0.00000	0.00000	0.00000	-2504.51929	569.34247	64.81661	-2569.13208	604.77319	60.95862	-2559.33301	562.09888	69.84726	0.00000	0.00000	0.00000	0.00000	0.00000	0.00000	0.00000	0.00000	0.00000	-2441.16455	438.31299	75.83298	-2512.75830	456.76968	78.77281	0.00000	0.00000	0.00000	0.00000	0.00000	0.00000	0.00000	0.00000	0.00000	0.00000	0.00000	0.00000	0.00000	0.00000	0.00000	-2570.56616	77.01931	166.04468	-2534.76343	45.37868	99.63067
1995	7.97600	-2416.22388	1064.61914	253.25375	0.00000	0.00000	0.00000	0.00000	0.00000	0.00000	-2754.48145	609.07874	417.36295	0.00000	0.00000	0.00000	-2796.35107	635.60699	400.33774	-2752.93481	561.59058	403.38843	-2793.66040	570.29150	253.00099	-2753.36304	466.39789	399.36798	0.00000	0.00000	0.00000	0.00000	0.00000	0.00000	0.00000	0.00000	0.00000	-2923.38696	130.98938	376.03076	-2943.33545	143.39035	279.37988	-2873.82251	88.85502	316.08652	-3081.84058	145.22346	405.41196	0.00000	0.00000	0.00000	0.00000	0.00000	0.00000	-2419.11401	1079.73877	170.66275	0.00000	0.00000	0.00000	0.00000	0.00000	0.00000	-2506.98145	569.05353	64.43937	-2571.70166	604.23376	60.62863	-2561.82739	561.60156	69.51312	0.00000	0.00000	0.00000	0.00000	0.00000	0.00000	0.00000	0.00000	0.00000	-2442.99536	438.30826	75.51504	-2514.11108	456.17242	78.59795	0.00000	0.00000	0.00000	0.00000	0.00000	0.00000	0.00000	0.00000	0.00000	0.00000	0.00000	0.00000	0.00000	0.00000	0.00000	-2570.57764	76.94106	166.00000	-2534.83081	45.29416	99.58595
1996	7.98000	-2420.85669	1063.86377	253.30537	0.00000	0.00000	0.00000	0.00000	0.00000	0.00000	-2757.82886	607.81519	416.43707	0.00000	0.00000	0.00000	-2799.15674	634.09619	398.93423	-2756.24438	560.81818	402.41885	-2795.69580	568.79932	251.88409	-2757.45947	465.59836	398.74753	0.00000	0.00000	0.00000	0.00000	0.00000	0.00000	0.00000	0.00000	0.00000	-2930.38770	131.61812	376.34500	-2950.36304	144.24100	279.29422	-2881.23438	88.85717	316.61853	0.00000	0.00000	0.00000	0.00000	0.00000	0.00000	0.00000	0.00000	0.00000	-2421.82983	1079.46716	170.93863	0.00000	0.00000	0.00000	0.00000	0.00000	0.00000	-2509.54956	568.74829	64.07981	-2574.37866	603.72681	60.27568	-2564.36011	561.10736	69.14999	0.00000	0.00000	0.00000	0.00000	0.00000	0.00000	0.00000	0.00000	0.00000	-2444.82251	438.29938	75.13219	-2516.04004	455.79050	78.23002	0.00000	0.00000	0.00000	0.00000	0.00000	0.00000	0.00000	0.00000	0.00000	0.00000	0.00000	0.00000	0.00000	0.00000	0.00000	-2570.61719	76.90181	165.96039	-2534.83374	45.17150	99.57327
1997	7.98400	-2424.84985	1063.37537	253.48822	0.00000	0.00000	0.00000	0.00000	0.00000	0.00000	-2761.25391	606.59570	415.46802	0.00000	0.00000	0.00000	-2803.26074	632.87689	398.45770	-2759.62402	560.07214	401.47879	-2798.77002	567.82556	250.84743	-2761.55591	464.85388	398.12332	0.00000	0.00000	0.00000	0.00000	0.00000	0.00000	0.00000	0.00000	0.00000	-2937.10229	132.18384	376.70798	-2956.82520	144.53967	279.63077	-2888.40894	88.70449	317.13599	0.00000	0.00000	0.00000	0.00000	0.00000	0.00000	0.00000	0.00000	0.00000	-2426.61475	1078.70166	171.45552	0.00000	0.00000	0.00000	0.00000	0.00000	0.00000	-2512.57227	568.49463	63.54657	-2577.11548	603.24847	59.92388	-2566.85767	560.59375	68.76888	0.00000	0.00000	0.00000	0.00000	0.00000	0.00000	0.00000	0.00000	0.00000	-2446.94067	438.15283	74.91334	-2518.04395	455.45099	77.88364	0.00000	0.00000	0.00000	0.00000	0.00000	0.00000	0.00000	0.00000	0.00000	0.00000	0.00000	0.00000	0.00000	0.00000	0.00000	-2570.60498	76.78001	165.89975	-2534.83765	45.04844	99.49297
1998	7.98800	-2428.13037	1062.98364	253.83214	0.00000	0.00000	0.00000	0.00000	0.00000	0.00000	-2764.77734	605.43945	414.49292	0.00000	0.00000	0.00000	-2806.22388	631.42090	396.99942	-2763.04907	559.35974	400.52444	-2802.91772	567.28992	249.88103	-2765.66577	464.13702	397.52399	0.00000	0.00000	0.00000	0.00000	0.00000	0.00000	0.00000	0.00000	0.00000	-2943.41870	132.60147	377.10156	-2962.86035	144.65619	279.92557	-2895.02783	88.41653	317.91602	0.00000	0.00000	0.00000	0.00000	0.00000	0.00000	0.00000	0.00000	0.00000	-2430.88892	1078.16321	171.71016	0.00000	0.00000	0.00000	0.00000	0.00000	0.00000	-2515.12598	568.20270	63.17934	-2579.82324	602.72009	59.54781	-2569.39673	560.10846	68.40335	0.00000	0.00000	0.00000	0.00000	0.00000	0.00000	0.00000	0.00000	0.00000	-2448.61743	438.29428	74.44852	-2520.00171	455.09506	77.50391	0.00000	0.00000	0.00000	0.00000	0.00000	0.00000	0.00000	0.00000	0.00000	0.00000	0.00000	0.00000	0.00000	0.00000	0.00000	-2570.59082	76.69225	165.83536	-2534.85352	44.92553	99.46151
1999	7.99200	-2431.55469	1062.64697	253.85942	0.00000	0.00000	0.00000	0.00000	0.00000	0.00000	-2768.39868	604.31934	413.53131	0.00000	0.00000	0.00000	-2810.50952	630.33911	396.41516	-2766.54688	558.62683	399.62579	-2805.00195	565.69916	248.77510	-2769.72681	463.42334	396.95712	0.00000	0.00000	0.00000	0.00000	0.00000	0.00000	0.00000	0.00000	0.00000	-2949.34985	132.83603	377.49808	-2968.59058	144.69241	280.22610	-2901.39209	88.28330	318.57166	0.00000	0.00000	0.00000	0.00000	0.00000	0.00000	0.00000	0.00000	0.00000	-2435.58789	1077.67749	171.68449	0.00000	0.00000	0.00000	0.00000	0.00000	0.00000	-2517.17700	567.89276	62.99947	-2582.48828	602.17181	59.20641	-2571.93140	559.58759	68.04064	0.00000	0.00000	0.00000	0.00000	0.00000	0.00000	0.00000	0.00000	0.00000	-2450.73291	438.15002	74.18752	-2522.61694	455.00824	76.92287	0.00000	0.00000	0.00000	0.00000	0.00000	0.00000	0.00000	0.00000	0.00000	0.00000	0.00000	0.00000	0.00000	0.00000	0.00000	-2570.59692	76.63158	165.80911	-2534.85156	44.80518	99.38693
2000	7.99600	-2436.03711	1061.87573	254.24286	0.00000	0.00000	0.00000	0.00000	0.00000	0.00000	-2772.10889	603.26703	412.55493	0.00000	0.00000	0.00000	-2814.22144	629.14081	395.33554	-2770.06958	557.89478	398.73691	-2808.17212	564.58136	247.79959	-2773.72339	462.72455	396.43088	0.00000	0.00000	0.00000	0.00000	0.00000	0.00000	0.00000	0.00000	0.00000	-2954.89990	132.93362	377.86832	-2973.88379	144.50308	280.51648	-2907.00537	87.73069	319.17261	0.00000	0.00000	0.00000	0.00000	0.00000	0.00000	0.00000	0.00000	0.00000	-2438.95337	1077.52856	171.69525	0.00000	0.00000	0.00000	0.00000	0.00000	0.00000	-2519.75220	567.60675	62.63234	-2585.21851	601.64575	58.86233	-2574.52979	559.09332	67.64740	0.00000	0.00000	0.00000	0.00000	0.00000	0.00000	0.00000	0.00000	0.00000	-2452.46313	438.39935	73.62922	-2524.63647	454.65698	76.54144	0.00000	0.00000	0.00000	0.00000	0.00000	0.00000	0.00000	0.00000	0.00000	0.00000	0.00000	0.00000	0.00000	0.00000	0.00000	-2570.60669	76.53154	165.78395	-2534.88574	44.69348	99.37810
2001	8.00000	-2440.96191	1061.09485	254.31909	0.00000	0.00000	0.00000	0.00000	0.00000	0.00000	-2775.90161	602.25452	411.59796	0.00000	0.00000	0.00000	-2817.48560	627.79315	393.82303	-2773.74487	557.22083	397.91293	-2811.42432	563.45117	246.84668	-2777.67749	461.99826	395.92776	0.00000	0.00000	0.00000	0.00000	0.00000	0.00000	0.00000	0.00000	0.00000	-2960.14722	132.92989	378.19476	-2978.66992	143.82205	281.14658	-2912.15942	87.20598	319.76074	0.00000	0.00000	0.00000	0.00000	0.00000	0.00000	0.00000	0.00000	0.00000	-2443.37622	1076.81531	172.15619	0.00000	0.00000	0.00000	0.00000	0.00000	0.00000	-2522.84790	567.32336	62.08541	-2587.90942	601.13062	58.49994	-2577.10645	558.57208	67.26248	0.00000	0.00000	0.00000	0.00000	0.00000	0.00000	0.00000	0.00000	0.00000	-2454.73901	438.14404	73.47908	-2526.08716	454.08768	76.32565	0.00000	0.00000	0.00000	0.00000	0.00000	0.00000	0.00000	0.00000	0.00000	0.00000	0.00000	0.00000	0.00000	0.00000	0.00000	-2569.88281	75.88194	166.41051	-2534.92969	44.60579	99.33521
